<?xml version="1.0" encoding="utf-8"?><svg viewBox="0 0 640 512" xmlns="http://www.w3.org/2000/svg" xmlns:xlink="http://www.w3.org/1999/xlink"><style>:root>svg{display:none}:root>svg:target{display:block}</style><svg viewBox="0 0 5 7" id="angle-black" xmlns="http://www.w3.org/2000/svg"><path d="M5.01 3.5L.01 7V0z"/></svg><svg viewBox="0 0 5 7" id="angle-green" xmlns="http://www.w3.org/2000/svg"><path d="M5.01 3.5L.01 7V0z"/></svg><svg viewBox="0 0 5 7" id="angle-left" xmlns="http://www.w3.org/2000/svg"><defs><style>.accls-1{fill:#fff;fill-rule:evenodd}</style></defs><path id="acico" class="accls-1" d="M376.988 1244.5l5 3.5v-7z" transform="translate(-377 -1241)"/></svg><svg viewBox="0 0 5 7" id="angle-left-solid" xmlns="http://www.w3.org/2000/svg"><defs><style>.adcls-1{fill:#2c3136;fill-rule:evenodd}</style></defs><path id="adico" class="adcls-1" d="M729.988 2316.5l5 3.5v-7z" transform="translate(-730 -2313)"/></svg><svg viewBox="0 0 5 7" id="angle-right" xmlns="http://www.w3.org/2000/svg"><defs><style>.aecls-1{fill:#fff;fill-rule:evenodd}</style></defs><path id="aeico" class="aecls-1" d="M1543.01 1244.5l-5 3.5v-7z" transform="translate(-1538 -1241)"/></svg><svg viewBox="0 0 5 7" id="angle-right-solid" xmlns="http://www.w3.org/2000/svg"><defs><style>.afcls-1{fill:#2c3136;fill-rule:evenodd}</style></defs><path id="afico" class="afcls-1" d="M1187.01 2316.5l-5 3.5v-7z" transform="translate(-1182 -2313)"/></svg><svg viewBox="0 0 5 7" id="angle-white" xmlns="http://www.w3.org/2000/svg"><defs><style>.agcls-1{fill:#fff;fill-rule:evenodd}</style></defs><path id="agico" class="agcls-1" d="M496.012 2921.5l-5 3.5v-7z" transform="translate(-491 -2918)"/></svg><svg aria-hidden="true" data-prefix="fas" data-icon="bezier-curve" class="ahsvg-inline--fa ahfa-bezier-curve ahfa-w-20" viewBox="0 0 640 512" id="bezier" xmlns="http://www.w3.org/2000/svg"><path fill="currentColor" d="M368 32h-96c-17.67 0-32 14.33-32 32v96c0 17.67 14.33 32 32 32h96c17.67 0 32-14.33 32-32V64c0-17.67-14.33-32-32-32zM208 88h-84.75C113.75 64.56 90.84 48 64 48 28.66 48 0 76.65 0 112s28.66 64 64 64c26.84 0 49.75-16.56 59.25-40h79.73c-55.37 32.52-95.86 87.32-109.54 152h49.4c11.3-41.61 36.77-77.21 71.04-101.56-3.7-8.08-5.88-16.99-5.88-26.44V88zm-48 232H64c-17.67 0-32 14.33-32 32v96c0 17.67 14.33 32 32 32h96c17.67 0 32-14.33 32-32v-96c0-17.67-14.33-32-32-32zM576 48c-26.84 0-49.75 16.56-59.25 40H432v72c0 9.45-2.19 18.36-5.88 26.44 34.27 24.35 59.74 59.95 71.04 101.56h49.4c-13.68-64.68-54.17-119.48-109.54-152h79.73c9.5 23.44 32.41 40 59.25 40 35.34 0 64-28.65 64-64s-28.66-64-64-64zm0 272h-96c-17.67 0-32 14.33-32 32v96c0 17.67 14.33 32 32 32h96c17.67 0 32-14.33 32-32v-96c0-17.67-14.33-32-32-32z"/></svg><svg fill="#2c3136" viewBox="0 0 512 512" id="car" xmlns="http://www.w3.org/2000/svg"><path d="M499.99 176h-59.87l-16.64-41.6C406.38 91.63 365.57 64 319.5 64h-127c-46.06 0-86.88 27.63-103.99 70.4L71.87 176H12.01C4.2 176-1.53 183.34.37 190.91l6 24C7.7 220.25 12.5 224 18.01 224h20.07C24.65 235.73 16 252.78 16 272v48c0 16.12 6.16 30.67 16 41.93V416c0 17.67 14.33 32 32 32h32c17.67 0 32-14.33 32-32v-32h256v32c0 17.67 14.33 32 32 32h32c17.67 0 32-14.33 32-32v-54.07c9.84-11.25 16-25.8 16-41.93v-48c0-19.22-8.65-36.27-22.07-48H494c5.51 0 10.31-3.75 11.64-9.09l6-24c1.89-7.57-3.84-14.91-11.65-14.91zm-352.06-17.83c7.29-18.22 24.94-30.17 44.57-30.17h127c19.63 0 37.28 11.95 44.57 30.17L384 208H128l19.93-49.83zM96 319.8c-19.2 0-32-12.76-32-31.9S76.8 256 96 256s48 28.71 48 47.85-28.8 15.95-48 15.95zm320 0c-19.2 0-48 3.19-48-15.95S396.8 256 416 256s32 12.76 32 31.9-12.8 31.9-32 31.9z"/></svg><svg viewBox="0 0 32 32" id="car2" xmlns="http://www.w3.org/2000/svg"><path d="M27 19c0-.6.4-1 1-1h3.6c-.8-1.8-2.5-3-4.6-3h-2.5L21 10.8C20 9.7 18.6 9 17.1 9H9.5C7.6 9 5.9 10.1 5 11.8L3.4 15H3c-1.7 0-3 1.3-3 3v4c0 1.1.9 2 2 2h1.1c.4 1.7 2 3 3.9 3s3.4-1.3 3.9-3h8.3c.4 1.7 2 3 3.9 3s3.4-1.3 3.9-3h3c1.1 0 2-.9 2-2v-2h-4c-.6 0-1-.4-1-1zM7 25c-1.1 0-2-.9-2-2s.9-2 2-2 2 .9 2 2-.9 2-2 2zm2.4-10H5.6l1.2-2.3c.5-1 1.5-1.7 2.7-1.7h1.9l-2 4zm2.2 0l2-4h3.5c.9 0 1.7.4 2.3 1.1l2.4 2.9H11.6zM23 25c-1.1 0-2-.9-2-2s.9-2 2-2 2 .9 2 2-.9 2-2 2z"/></svg><svg version="1.1" id="car3" x="0" y="0" viewBox="0 0 150 150" xml:space="preserve" xmlns="http://www.w3.org/2000/svg"><style/><path d="M105.7 79H47.8c-1.4 0-2.5-1.1-2.5-2.5s1.1-2.5 2.5-2.5h57.9c1.4 0 2.5 1.1 2.5 2.5s-1.1 2.5-2.5 2.5zM116.2 106.7c-7.7 0-14-6.3-14-14s6.3-14 14-14 14 6.3 14 14-6.3 14-14 14zm0-23.1c-5 0-9 4.1-9 9s4.1 9 9 9 9-4.1 9-9-4-9-9-9z"/><path d="M116.2 100c-4 0-7.3-3.3-7.3-7.3s3.3-7.3 7.3-7.3c1.4 0 2.5 1.1 2.5 2.5s-1.1 2.5-2.5 2.5c-1.3 0-2.3 1-2.3 2.3s1 2.3 2.3 2.3 2.3-1 2.3-2.3c0-1.4 1.1-2.5 2.5-2.5s2.5 1.1 2.5 2.5c0 4-3.3 7.3-7.3 7.3zM34.7 106.7c-7.7 0-14-6.3-14-14s6.3-14 14-14 14 6.3 14 14-6.3 14-14 14zm0-23.1c-5 0-9 4.1-9 9s4.1 9 9 9c5 0 9-4.1 9-9s-4-9-9-9z"/><path d="M34.7 100c-4 0-7.3-3.3-7.3-7.3s3.3-7.3 7.3-7.3c1.4 0 2.5 1.1 2.5 2.5s-1.1 2.5-2.5 2.5c-1.3 0-2.3 1-2.3 2.3s1 2.3 2.3 2.3 2.3-1 2.3-2.3c0-1.4 1.1-2.5 2.5-2.5s2.5 1.1 2.5 2.5c0 4-3.3 7.3-7.3 7.3z"/><path d="M136.5 94.2h-6.7c-1.4 0-2.5-1.1-2.5-2.5s1.1-2.5 2.5-2.5h4.2V78.7c0-10.2-12.1-11.7-13.4-11.9H95.1c-.9 0-1.7-.5-2.2-1.2L81.3 45.9H49.2c-9.8 1.9-15 16.7-15 16.9-.3 1-1.3 1.7-2.4 1.7H16v21.3c0 1.9 1.6 3.5 3.5 3.5h2.7c1.4 0 2.5 1.1 2.5 2.5s-1.1 2.5-2.5 2.5h-2.7c-4.7 0-8.5-3.8-8.5-8.5V61.9c0-1.4 1.1-2.5 2.5-2.5h16.6c1.9-4.5 7.8-16.6 18.5-18.5H82.8c.9 0 1.7.5 2.2 1.2l11.6 19.8H121c6.2.5 18 4.8 18 16.8v13c0 1.4-1.1 2.5-2.5 2.5z"/><path d="M103.8 94.2H47c-1.4 0-2.5-1.1-2.5-2.5s1.1-2.5 2.5-2.5h56.8c1.4 0 2.5 1.1 2.5 2.5s-1.1 2.5-2.5 2.5zM45.4 66.9c-2 0-3.9-1.1-4.9-2.9-1-1.8-.9-4 .1-5.7.7-1.5 5.1-9.6 11.3-9.6h35.4c.9 0 1.7.5 2.2 1.2l7.7 13.2c.5.8.5 1.7 0 2.5-.4.8-1.3 1.3-2.2 1.3H45.4c.1 0 .1 0 0 0zm6.5-13.2c-2.6 0-5.8 4.8-6.8 6.9 0 .1-.1.2-.2.3-.2.3-.1.5 0 .7.1.2.2.4.6.3h45.3L86 53.7H51.9zM136.2 78H126c-1.1 0-2.1-.8-2.4-1.8-1-3.7-.8-6.7.6-8.9 1.5-2.4 3.9-2.9 4.2-2.9.4-.1.7 0 1.1 0 .3.1 7.1 1.9 9.2 10.5.2.7 0 1.5-.5 2.1-.5.6-1.3 1-2 1zm-8.2-5h4.5c-1.2-2.1-2.8-3.1-3.7-3.5-.2.1-.3.3-.5.5-.4.6-.5 1.7-.3 3zM21.7 79h-8.2c-1.4 0-2.5-1.1-2.5-2.5v-8.7c0-1.4 1.1-2.5 2.5-2.5h6.6c.3 0 .6.1.9.2 1.7.7 3 1.9 3.6 3.6 1.4 3.6-.4 8-.7 8.5-.3.8-1.2 1.4-2.2 1.4zM16 74h3.9c.3-1 .4-2.3.1-3.1-.1-.2-.2-.4-.5-.6H16V74z"/></svg><svg viewBox="0 0 512 512" id="coins" xmlns="http://www.w3.org/2000/svg"><path fill="#2c3136" d="M0 405.3V448c0 35.3 86 64 192 64s192-28.7 192-64v-42.7C342.7 434.4 267.2 448 192 448S41.3 434.4 0 405.3zM320 128c106 0 192-28.7 192-64S426 0 320 0 128 28.7 128 64s86 64 192 64zM0 300.4V352c0 35.3 86 64 192 64s192-28.7 192-64v-51.6c-41.3 34-116.9 51.6-192 51.6S41.3 334.4 0 300.4zm416 11c57.3-11.1 96-31.7 96-55.4v-42.7c-23.2 16.4-57.3 27.6-96 34.5v63.6zM192 160C86 160 0 195.8 0 240s86 80 192 80 192-35.8 192-80-86-80-192-80zm219.3 56.3c60-10.8 100.7-32 100.7-56.3v-42.7c-35.5 25.1-96.5 38.6-160.7 41.8 29.5 14.3 51.2 33.5 60 57.2z"/></svg><svg viewBox="0 0 57.969 60.437" id="decor" xmlns="http://www.w3.org/2000/svg"><defs><style>.amcls-1{fill:#1ab530;fill-rule:evenodd}</style></defs><path class="amcls-1" d="M51.218 6.675a13.5 13.5 0 014.942 18.441l-16.5 28.579a13.5 13.5 0 11-23.383-13.5l16.5-28.579a13.5 13.5 0 0118.441-4.941zM27.001 1.353a10 10 0 013.66 13.66l-12 20.785a10 10 0 01-17.321-10l12-20.785a10 10 0 0113.661-3.66z"/></svg><svg viewBox="0 0 7 5" id="drop-ico" xmlns="http://www.w3.org/2000/svg"><path fill="#2c3136" d="M3.5 5.01L0 .01h7z"/></svg><svg viewBox="0 0 5 7" id="how-ico" xmlns="http://www.w3.org/2000/svg"><path fill="#073ef2" data-name="drop ico" class="aocls-1" d="M5.01 3.5L.01 7V0z"/></svg><svg version="1.1" id="lombard" x="0" y="0" viewBox="0 0 32 32" xml:space="preserve" xmlns="http://www.w3.org/2000/svg"><style>.apst0{fill:none;stroke:#000;stroke-width:2;stroke-linecap:round;stroke-linejoin:round;stroke-miterlimit:10}</style><path class="apst0" d="M23 15H9c-1.1 0-2-.9-2-2V4c0-1.1.9-2 2-2h14c1.1 0 2 .9 2 2v9c0 1.1-.9 2-2 2zM7 6h18M11 5V2M3 23h6v6H3zM13 23h6v6h-6zM23 23h6v6h-6zM6 23v-4h20v4M16 15v8"/></svg><svg viewBox="0 0 448 512" id="percent" xmlns="http://www.w3.org/2000/svg"><path fill="#2c3136" d="M112 224c61.9 0 112-50.1 112-112S173.9 0 112 0 0 50.1 0 112s50.1 112 112 112zm0-160c26.5 0 48 21.5 48 48s-21.5 48-48 48-48-21.5-48-48 21.5-48 48-48zm224 224c-61.9 0-112 50.1-112 112s50.1 112 112 112 112-50.1 112-112-50.1-112-112-112zm0 160c-26.5 0-48-21.5-48-48s21.5-48 48-48 48 21.5 48 48-21.5 48-48 48zM392.3.2l31.6-.1c19.4-.1 30.9 21.8 19.7 37.8L77.4 501.6a23.95 23.95 0 01-19.6 10.2l-33.4.1c-19.5 0-30.9-21.9-19.7-37.8l368-463.7C377.2 4 384.5.2 392.3.2z"/></svg><svg viewBox="0 0 21 12" id="request-arrow" xmlns="http://www.w3.org/2000/svg"><defs><style>.arcls-1{fill:#2c3136;fill-rule:evenodd}</style></defs><path class="arcls-1" d="M0 5h17.325L14.11 1.5 15.488 0 21 6l-5.512 6-1.378-1.5L17.325 7H0V5z"/></svg><svg viewBox="0 0 32 34.062" id="romb" xmlns="http://www.w3.org/2000/svg"><defs><style>.ascls-1{fill:#073ef2;fill-rule:evenodd}</style></defs><path class="ascls-1" d="M29.16 6.492L18.83.721a5.842 5.842 0 00-5.66 0L2.83 6.492A5.483 5.483 0 000 11.244v11.533a5.483 5.483 0 002.83 4.751l10.34 5.771a5.842 5.842 0 005.66 0l10.33-5.771A5.472 5.472 0 0032 22.777V11.244a5.472 5.472 0 00-2.84-4.752z"/></svg><svg viewBox="0 0 640 512" id="sitemap" xmlns="http://www.w3.org/2000/svg"><path fill="#2c3136" d="M128 352H32c-17.67 0-32 14.33-32 32v96c0 17.67 14.33 32 32 32h96c17.67 0 32-14.33 32-32v-96c0-17.67-14.33-32-32-32zm-24-80h192v48h48v-48h192v48h48v-57.59c0-21.17-17.23-38.41-38.41-38.41H344v-64h40c17.67 0 32-14.33 32-32V32c0-17.67-14.33-32-32-32H256c-17.67 0-32 14.33-32 32v96c0 17.67 14.33 32 32 32h40v64H94.41C73.23 224 56 241.23 56 262.41V320h48v-48zm264 80h-96c-17.67 0-32 14.33-32 32v96c0 17.67 14.33 32 32 32h96c17.67 0 32-14.33 32-32v-96c0-17.67-14.33-32-32-32zm240 0h-96c-17.67 0-32 14.33-32 32v96c0 17.67 14.33 32 32 32h96c17.67 0 32-14.33 32-32v-96c0-17.67-14.33-32-32-32z"/></svg><svg viewBox="0 0 45 23" id="steps-arrow" xmlns="http://www.w3.org/2000/svg"><defs><style>.aucls-1{fill:#2c3136;fill-rule:evenodd}</style></defs><path id="auarrow" class="aucls-1" d="M507.931 1537.84a.937.937 0 01-.193.29l-10.625 10.6a.884.884 0 01-1.251-1.25l9.114-9.09H463v-1.77h41.977l-9.113-9.1a.884.884 0 111.231-1.27c.007.01.014.01.021.02l10.625 10.61a.876.876 0 01.193.96z" transform="translate(-463 -1526)"/></svg><svg viewBox="0 0 28 21.03" id="steps-check" xmlns="http://www.w3.org/2000/svg"><defs><style>.avcls-1{fill:#2c3136;fill-rule:evenodd}</style></defs><path class="avcls-1" d="M27.68.34A1.129 1.129 0 0026.1.31l-.03.03-18.26 18-5.93-5.85a1.129 1.129 0 00-1.58.03 1.086 1.086 0 000 1.53l6.72 6.63a1.111 1.111 0 001.58 0L27.66 1.9a1.1 1.1 0 00.02-1.56z"/></svg><svg viewBox="0 0 512 512" id="sync" xmlns="http://www.w3.org/2000/svg"><path fill="#2c3136" d="M440.65 12.57l4 82.77A247.16 247.16 0 00255.83 8C134.73 8 33.91 94.92 12.29 209.82A12 12 0 0024.09 224h49.05a12 12 0 0011.67-9.26 175.91 175.91 0 01317-56.94l-101.46-4.86a12 12 0 00-12.57 12v47.41a12 12 0 0012 12H500a12 12 0 0012-12V12a12 12 0 00-12-12h-47.37a12 12 0 00-11.98 12.57zM255.83 432a175.61 175.61 0 01-146-77.8l101.8 4.87a12 12 0 0012.57-12v-47.4a12 12 0 00-12-12H12a12 12 0 00-12 12V500a12 12 0 0012 12h47.35a12 12 0 0012-12.6l-4.15-82.57A247.17 247.17 0 00255.83 504c121.11 0 221.93-86.92 243.55-201.82a12 12 0 00-11.8-14.18h-49.05a12 12 0 00-11.67 9.26A175.86 175.86 0 01255.83 432z"/></svg><svg viewBox="0 0 60.5 43.1" id="triangle" xmlns="http://www.w3.org/2000/svg"><path fill="#1ab530" d="M36.073 2.77l22.805 28.42a7.328 7.328 0 01-5.83 11.89H7.438a7.328 7.328 0 01-5.83-11.89L24.413 2.77a7.5 7.5 0 0111.66 0z"/></svg><svg viewBox="0 0 60.5 43.1" id="triangle-grey" xmlns="http://www.w3.org/2000/svg"><path fill="#565a5e" d="M36.073 2.77l22.805 28.42a7.328 7.328 0 01-5.83 11.89H7.438a7.328 7.328 0 01-5.83-11.89L24.413 2.77a7.5 7.5 0 0111.66 0z"/></svg><svg viewBox="0 0 448 512" id="user-tie" xmlns="http://www.w3.org/2000/svg"><path fill="#2c3136" d="M224 256c70.7 0 128-57.3 128-128S294.7 0 224 0 96 57.3 96 128s57.3 128 128 128zm95.8 32.6L272 480l-32-136 32-56h-96l32 56-32 136-47.8-191.4C56.9 292 0 350.3 0 422.4V464c0 26.5 21.5 48 48 48h352c26.5 0 48-21.5 48-48v-41.6c0-72.1-56.9-130.4-128.2-133.8z"/></svg><svg viewBox="0 0 512 512" id="wallet" xmlns="http://www.w3.org/2000/svg"><path fill="#2c3136" d="M461.2 128H80c-8.84 0-16-7.16-16-16s7.16-16 16-16h384c8.84 0 16-7.16 16-16 0-26.51-21.49-48-48-48H64C28.65 32 0 60.65 0 96v320c0 35.35 28.65 64 64 64h397.2c28.02 0 50.8-21.53 50.8-48V176c0-26.47-22.78-48-50.8-48zM416 336c-17.67 0-32-14.33-32-32s14.33-32 32-32 32 14.33 32 32-14.33 32-32 32z"/></svg></svg>