<svg version="1.1" id="Layer_1" xmlns="http://www.w3.org/2000/svg" x="0" y="0" viewBox="0 0 150 150" xml:space="preserve"><style/><path d="M105.7 79H47.8c-1.4 0-2.5-1.1-2.5-2.5s1.1-2.5 2.5-2.5h57.9c1.4 0 2.5 1.1 2.5 2.5s-1.1 2.5-2.5 2.5zm10.5 27.7c-7.7 0-14-6.3-14-14s6.3-14 14-14 14 6.3 14 14-6.3 14-14 14zm0-23.1c-5 0-9 4.1-9 9s4.1 9 9 9 9-4.1 9-9-4-9-9-9z"/><path d="M116.2 100c-4 0-7.3-3.3-7.3-7.3s3.3-7.3 7.3-7.3c1.4 0 2.5 1.1 2.5 2.5s-1.1 2.5-2.5 2.5c-1.3 0-2.3 1-2.3 2.3s1 2.3 2.3 2.3 2.3-1 2.3-2.3c0-1.4 1.1-2.5 2.5-2.5s2.5 1.1 2.5 2.5c0 4-3.3 7.3-7.3 7.3zm-81.5 6.7c-7.7 0-14-6.3-14-14s6.3-14 14-14 14 6.3 14 14-6.3 14-14 14zm0-23.1c-5 0-9 4.1-9 9s4.1 9 9 9c5 0 9-4.1 9-9s-4-9-9-9z"/><path d="M34.7 100c-4 0-7.3-3.3-7.3-7.3s3.3-7.3 7.3-7.3c1.4 0 2.5 1.1 2.5 2.5s-1.1 2.5-2.5 2.5c-1.3 0-2.3 1-2.3 2.3s1 2.3 2.3 2.3 2.3-1 2.3-2.3c0-1.4 1.1-2.5 2.5-2.5s2.5 1.1 2.5 2.5c0 4-3.3 7.3-7.3 7.3z"/><path d="M136.5 94.2h-6.7c-1.4 0-2.5-1.1-2.5-2.5s1.1-2.5 2.5-2.5h4.2V78.7c0-10.2-12.1-11.7-13.4-11.9H95.1c-.9 0-1.7-.5-2.2-1.2L81.3 45.9H49.2c-9.8 1.9-15 16.7-15 16.9-.3 1-1.3 1.7-2.4 1.7H16v21.3c0 1.9 1.6 3.5 3.5 3.5h2.7c1.4 0 2.5 1.1 2.5 2.5s-1.1 2.5-2.5 2.5h-2.7c-4.7 0-8.5-3.8-8.5-8.5V61.9c0-1.4 1.1-2.5 2.5-2.5h16.6c1.9-4.5 7.8-16.6 18.5-18.5h34.2c.9 0 1.7.5 2.2 1.2l11.6 19.8H121c6.2.5 18 4.8 18 16.8v13c0 1.4-1.1 2.5-2.5 2.5z"/><path d="M103.8 94.2H47c-1.4 0-2.5-1.1-2.5-2.5s1.1-2.5 2.5-2.5h56.8c1.4 0 2.5 1.1 2.5 2.5s-1.1 2.5-2.5 2.5zM45.4 66.9c-2 0-3.9-1.1-4.9-2.9-1-1.8-.9-4 .1-5.7.7-1.5 5.1-9.6 11.3-9.6h35.4c.9 0 1.7.5 2.2 1.2l7.7 13.2c.5.8.5 1.7 0 2.5-.4.8-1.3 1.3-2.2 1.3H45.4c.1 0 .1 0 0 0zm6.5-13.2c-2.6 0-5.8 4.8-6.8 6.9 0 .1-.1.2-.2.3-.2.3-.1.5 0 .7.1.2.2.4.6.3h45.3L86 53.7H51.9zM136.2 78H126c-1.1 0-2.1-.8-2.4-1.8-1-3.7-.8-6.7.6-8.9 1.5-2.4 3.9-2.9 4.2-2.9.4-.1.7 0 1.1 0 .3.1 7.1 1.9 9.2 10.5.2.7 0 1.5-.5 2.1-.5.6-1.3 1-2 1zm-8.2-5h4.5c-1.2-2.1-2.8-3.1-3.7-3.5-.2.1-.3.3-.5.5-.4.6-.5 1.7-.3 3zM21.7 79h-8.2c-1.4 0-2.5-1.1-2.5-2.5v-8.7c0-1.4 1.1-2.5 2.5-2.5h6.6c.3 0 .6.1.9.2 1.7.7 3 1.9 3.6 3.6 1.4 3.6-.4 8-.7 8.5-.3.8-1.2 1.4-2.2 1.4zM16 74h3.9c.3-1 .4-2.3.1-3.1-.1-.2-.2-.4-.5-.6H16V74z"/></svg>